<svg t="1711109785693" class="icon" viewBox="0 0 1024 1024" version="1.1" xmlns="http://www.w3.org/2000/svg" p-id="5511" width="200" height="200"><path d="M915.188 856.235l-79.393-147.348c8.229-18.347 12.916-38.59 12.996-59.896 0.33-82.354-66.473-149.41-149.324-149.656-82.603-0.574-150.064 66.065-150.313 148.421 0 21.144 4.443 41.961 13.165 61.211l-80.875 145.461c-3.7 6.5-1.398 14.727 5.182 18.426 2.964 1.648 6.419 2.143 9.795 1.398l68.449-15.467 23.199 65.08c1.812 5.018 6.42 8.473 11.682 9.051h1.073c5.018 0 9.625-2.715 12.011-7.078l70.672-129.825c4.938 0.494 9.79 1.562 14.808 1.562 4.692 0 9.051-0.902 13.659-1.396l71.164 130.318c2.307 4.443 6.914 7.16 11.932 7.16 0.33 0.08 0.659 0 1.068 0 5.348-0.41 9.955-3.869 11.848-8.803l23.613-64.834 68.285 15.795c5.186 1.318 10.697-0.654 13.908-4.932 3.453-4.279 3.947-10.038 1.396-14.648zM600.33 838.219l-8.477-23.942c-1.149-3.291-4.608-5.183-8.063-4.36l-25.421 5.678 36.034-64.337c13.249 13.33 24.023 19.086 38.751 27.234l-32.824 59.727z m98.149-95.109c-52.734-0.329-95.518-43.193-95.27-95.684 0.33-52.737 43.358-95.188 96.012-94.857 52.654 0.08 95.354 42.863 95.273 95.518-0.329 52.738-43.276 95.188-96.015 95.023z m117.323 77.256c-3.947-0.904-7.981 1.232-9.379 5.102l-10.119 28.302-38.586-70.592c17.442-9.544 30.193-16.455 45.824-32.085l42.289 75.938-30.029-6.665zM265.112 369.816h422.762c15.66 0 28.652-20.989 28.652-36.645 0-15.656-12.992-36.644-28.652-36.644H265.112c-15.656 0-28.648 20.988-28.648 36.644 0 15.656 12.992 36.645 28.648 36.645zM265.112 680.308c-15.656 0-28.648 20.988-28.648 36.648 0 15.658 12.992 36.645 28.648 36.645h159.945c15.657 0 28.649-20.986 28.649-36.645 0-15.66-12.992-36.648-28.649-36.648H265.112zM535.858 531.058c0-15.656-12.66-36.645-28.648-36.645H265.112c-15.656 0-28.648 20.989-28.648 36.645 0 15.66 12.992 36.648 28.648 36.648H507.21c15.988 0 28.648-20.988 28.648-36.648z" fill="#1D92FF" p-id="5512"></path><path d="M842.12 336.829V166.597c-0.719-42.09-34.859-75.934-76.957-76.289H196.819c-47.191 4.637-84.629 41.797-89.617 88.949v641.305c5.137 47.027 42.535 84.01 89.617 88.617h179.418c3.965 0 5.84-0.015 9.376-0.015h35.296c21.533 0 35.988-17.446 35.988-38.969s-14.456-38.969-35.988-38.969h-39.885c-0.041 0-0.083-0.005-0.124-0.005H218.472c-22.321 0-33.313-9.992-33.313-33.313V198.245c0-19.652 7.996-27.648 27.648-27.648h520.708c19.988 0 28.316 7.66 28.316 27.648v220.488c0 0.296 0.022 0.59 0.038 0.885v7.336c0 22.184 17.983 37.167 40.167 37.167 22.183 0 40.166-14.983 40.166-37.167v-87.667c0-0.826-0.033-1.644-0.082-2.458z" fill="#FF9E12" p-id="5513"></path></svg>